<svg xmlns="http://www.w3.org/2000/svg" xmlns:xlink="http://www.w3.org/1999/xlink" aria-hidden="true" role="img" class="iconify iconify--logos" width="31.88" height="32" preserveAspectRatio="xMidYMid meet" viewBox="0 0 256 257"><defs><linearGradient id="IconifyId1813088fe1fbc01fb466" x1="-.828%" x2="57.636%" y1="7.652%" y2="78.411%"><stop offset="0%" stop-color="#41D1FF"></stop><stop offset="100%" stop-color="#BD34FE"></stop></linearGradient><linearGradient id="IconifyId1813088fe1fbc01fb467" x1="43.336%" x2="50.016%" y1="2.241%" y2="89.03%"><stop offset="0%" stop-color="#FFBD4F"></stop><stop offset="100%" stop-color="#FF9640"></stop></linearGradient></defs><path fill="url(#IconifyId1813088fe1fbc01fb466)" d="M255.153 37.938L134.897 252.976c-2.483 4.44-8.862 4.466-11.382.048L.875 37.958c-2.714-4.814 1.37-10.469 6.81-9.574l119.983 21.948a6.525 6.525 0 0 0 2.322-.004l117.867-21.948c5.438-.901 9.537 4.734 6.896 9.558Z"></path><path fill="url(#IconifyId1813088fe1fbc01fb467)" d="M185.432.063L96.44 17.501a3.26 3.26 0 0 0-2.634 3.014l-5.474 92.456a3.268 3.268 0 0 0 3.976 3.378l24.767-5.718c2.318-.534 4.413 1.507 3.936 3.838l-7.361 36.047c-.495 2.426 1.782 4.489 4.139 3.678l15.306-5.322c2.358-.81 4.636 1.253 4.14 3.68l-11.69 56.601c-.734 3.556 3.979 5.447 5.727 2.297l.818-1.466l71.644-142.866c1.19-2.376-.682-5.069-3.284-4.58l-25.504 4.926c-2.396.462-4.369-1.908-3.276-4.098l16.619-32.478c1.093-2.19-.88-4.56-3.276-4.098Z"></path></svg>
